<?xml version="1.0" encoding="utf-8"?>
<!-- Generator: Adobe Illustrator 26.5.0, SVG Export Plug-In . SVG Version: 6.00 Build 0)  -->
<svg version="1.1" id="Layer_1" xmlns="http://www.w3.org/2000/svg" xmlns:xlink="http://www.w3.org/1999/xlink" x="0px" y="0px"
	 viewBox="0 0 36 40" style="enable-background:new 0 0 36 40;" xml:space="preserve">
<style type="text/css">
	.st0{fill:#39A9E0;}
</style>
<path class="st0" d="M15.2,33.9c-0.3,0-0.6,0.3-0.6,0.6v4.9c0,0.3,0.3,0.6,0.6,0.6c0.3,0,0.6-0.3,0.6-0.6v-4.9
	C15.8,34.2,15.6,33.9,15.2,33.9z"/>
<path class="st0" d="M6.7,34.5c-0.3,0-0.6,0.2-0.6,0.5l-0.4,4.4c0,0.3,0.2,0.6,0.5,0.6c0,0,0,0,0,0c0.3,0,0.6-0.2,0.6-0.5l0.4-4.4
	C7.3,34.8,7,34.5,6.7,34.5z"/>
<path class="st0" d="M15.2,20.5c0.6,0,1.1-0.2,1.5-0.7c0.2-0.2,0.2-0.6,0-0.8c-0.2-0.2-0.6-0.2-0.8,0c-0.2,0.2-0.4,0.3-0.7,0.3
	c-0.3,0-0.5-0.1-0.7-0.3c-0.2-0.2-0.6-0.3-0.8,0c-0.2,0.2-0.3,0.6,0,0.8C14.1,20.3,14.7,20.5,15.2,20.5z"/>
<path class="st0" d="M35,23.9c-0.2-0.3-0.5-0.4-0.8-0.2c-0.3,0.2-0.4,0.5-0.2,0.8c0.5,0.9,0.8,1.9,0.8,2.9c0,2-1,3.9-2.7,5
	c-0.9,0.6-1.5,1.5-1.6,2.5h-3.3c-0.2-1-0.7-1.9-1.6-2.5c-1.6-1.1-2.6-2.9-2.7-4.8c-0.1-3.3,2.5-6,5.8-6.1c1.3,0,2.6,0.4,3.7,1.2
	c0.3,0.2,0.6,0.1,0.8-0.1c0.2-0.3,0.1-0.6-0.1-0.8c-1.3-1-2.8-1.4-4.4-1.4c-3.4,0.1-6.2,2.6-6.8,5.8H19V23c2.2-0.8,3.8-2.8,3.9-5.2
	h1.3c1.7,0,3-1.4,3-3V13c0-1.7-1.4-3-3-3H24c0.1-0.3,0.2-0.5,0.2-0.8V5.3c0-2.1-1.7-3.8-3.8-3.8h-0.6c-0.2-0.4-0.5-0.8-0.9-1
	C18.4,0.2,17.8,0,17.2,0H7.8C7,0,6.3,0.7,6.3,1.6v7.6c0,0.3,0.1,0.6,0.2,0.8H6.2c-1.7,0-3,1.4-3,3v1.7c0,1.7,1.4,3,3,3h1.3
	c0.2,2.4,1.8,4.4,3.9,5.2v3.1H7c-2.7,0-5,1.9-5.5,4.6L0,39.3C0,39.6,0.2,39.9,0.5,40c0,0,0.1,0,0.1,0c0.3,0,0.5-0.2,0.6-0.5l1.5-8.6
	c0.4-2.1,2.2-3.6,4.3-3.6h4.5v12.1c0,0.3,0.3,0.6,0.6,0.6c0.3,0,0.6-0.3,0.6-0.6v-7.2l2-2.2v1.7c0,0.3,0.3,0.6,0.6,0.6
	s0.6-0.3,0.6-0.6v-1.7l2,2.2v7.2c0,0.3,0.3,0.6,0.6,0.6s0.6-0.3,0.6-0.6V27.3h2.6c-0.1,2.4,1.2,4.8,3.2,6.1c0.7,0.5,1.1,1.2,1.1,2.1
	v0v2.6c0,1.1,0.9,1.9,1.9,1.9h1.7c1.1,0,1.9-0.9,1.9-1.9v-2.6v0v0c0-0.9,0.4-1.7,1.1-2.1c2-1.3,3.2-3.5,3.2-5.9
	C35.9,26.2,35.6,25,35,23.9z M26.1,13v1.7c0,1-0.8,1.9-1.9,1.9h-1.3v-5.4h1.3C25.3,11.1,26.1,12,26.1,13z M7.4,1.6
	c0-0.2,0.2-0.4,0.4-0.4h9.4c0.4,0,0.7,0.1,1,0.3C18.6,1.7,18.8,2,19,2.3c0.1,0.2,0.3,0.4,0.5,0.4h0.9c1.4,0,2.6,1.2,2.6,2.6v3.8
	c0,0.2-0.1,0.4-0.2,0.6c-0.5-1.8-2.1-3.1-4.1-3.1c-0.3,0-0.6,0.3-0.6,0.6s0.3,0.6,0.6,0.6c1.7,0,3,1.4,3,3v0.8
	c-0.6-0.6-1.5-0.9-2.4-0.9c-1.6,0-3,1.1-3.5,2.6c-0.3-0.1-0.8-0.2-1.3,0c-0.4-1.5-1.8-2.6-3.5-2.6c-0.9,0-1.8,0.4-2.4,0.9v-0.8
	c0-1.7,1.4-3,3-3H16c0.3,0,0.6-0.3,0.6-0.6S16.3,6.6,16,6.6h-4.2c-1.9,0-3.6,1.3-4.1,3.1C7.5,9.6,7.4,9.4,7.4,9.1L7.4,1.6L7.4,1.6z
	 M21.8,14.3c0,1.3-1.1,2.4-2.4,2.4c-1.3,0-2.4-1.1-2.4-2.4c0-1.3,1.1-2.4,2.4-2.4C20.7,11.9,21.8,12.9,21.8,14.3z M11.1,16.7
	c-1.3,0-2.4-1.1-2.4-2.4c0-1.3,1.1-2.4,2.4-2.4c1.3,0,2.4,1.1,2.4,2.4C13.6,15.6,12.5,16.7,11.1,16.7z M14.8,14.8
	c0-0.3,0.2-0.5,0.5-0.5c0.3,0,0.5,0.2,0.5,0.5v1.7c0,0.3-0.2,0.5-0.5,0.5h0c-0.3,0-0.5-0.2-0.5-0.5V14.8z M4.4,14.7V13
	c0-1,0.8-1.9,1.9-1.9h1.3v5.4H6.2C5.2,16.6,4.4,15.7,4.4,14.7z M8.7,17.3c0-0.1,0-0.2,0-0.3c0.6,0.6,1.5,0.9,2.4,0.9
	c1,0,1.8-0.4,2.5-1c0.2,0.7,0.8,1.2,1.6,1.2h0c0.8,0,1.4-0.5,1.6-1.2c0.6,0.6,1.5,1,2.5,1c0.9,0,1.8-0.4,2.4-0.9
	c0.2,2.8-2.1,5.3-4.9,5.3h-3.2C10.9,22.2,8.7,20,8.7,17.3z M13.6,23.4h3.2c0.3,0,0.6,0,1-0.1v3.1l-2.6,1.5l-2.6-1.5v-3.1
	C13,23.4,13.3,23.4,13.6,23.4z M12.7,27.7l1.7,1l-1.7,1.8V27.7z M16.2,28.7l1.7-1v2.8L16.2,28.7z M30.3,38.1c0,0.4-0.3,0.7-0.7,0.7
	h-1.7c-0.4,0-0.7-0.3-0.7-0.7v-2h3.2L30.3,38.1L30.3,38.1z"/>
<path class="st0" d="M32.1,25c-0.3-0.1-0.6,0-0.8,0.3l-1.4,2.9l-1.8-1.4c-0.1-0.1-0.3-0.1-0.5-0.1c-0.2,0-0.3,0.2-0.4,0.3l-1.4,2.8
	c-0.1,0.3,0,0.6,0.3,0.8c0.1,0,0.2,0.1,0.3,0.1c0.2,0,0.4-0.1,0.5-0.3l1.1-2.2l1.8,1.4c0.1,0.1,0.3,0.1,0.5,0.1
	c0.2,0,0.3-0.2,0.4-0.3l1.7-3.6C32.5,25.5,32.4,25.1,32.1,25z"/>
</svg>
