<?xml version="1.0" encoding="UTF-8"?>
<svg id="Layer_2" data-name="Layer 2" xmlns="http://www.w3.org/2000/svg" xmlns:xlink="http://www.w3.org/1999/xlink" viewBox="0 0 565.92 565.92">
  <defs>
    <style>
      .cls-1 {
        fill: #161248;
      }

      .cls-2 {
        clip-path: url(#clippath);
      }

      .cls-3 {
        clip-rule: evenodd;
        fill: none;
      }

      .cls-4 {
        fill: #3aa9e0;
        fill-rule: evenodd;
      }

      .cls-5 {
        fill: url(#linear-gradient);
      }
    </style>
    <clipPath id="clippath">
      <path class="cls-3" d="M348.51,200.23v-15.06l27.44,26.73-.15,128.71-11.07-1.22,.17-122.81-16.4-16.34Zm-162.55,200.95v-8.57h-21.13v8.57h21.13Zm38.09-.04v-8.53h-7.43v8.53h7.43Zm56.84,8.63h-37.46v-34.55h8.66v25.93h20.15v-25.95h8.66v34.56Zm-14.61-29.29h-8.25v-8.64h8.25v8.64Zm73.87,41.79h-8.64v-8.63h8.64v8.63Zm12.49,0h-8.63v-8.63h8.63v8.63Zm-229.38,0h-20.17v-8.62h11.53v-29.64h8.64v17.17h19.39v-12.51h8.63v12.51h4.92v-17.23h38.42v17.23c7.66,0,6.9-.04,14.59-.04v-17.13h22.28v25.78H123.24v12.47ZM286.83,89.4l53.68,52.1,.06,202.35,122.27,14.46-133.32,.13-.06-212.26-33.91-33.18-.08,288.16h43.06v-12.48h8.63v12.51h106.98v-6.92h-75.43v-24.29h84.08v8.67h-75.43v6.92h75.43v24.24h-175.97V89.4Zm96.49,188.1v-15.06l27.44,26.73-.15,55.54-11.07-1.22,.17-49.64-16.4-16.34Z"/>
    </clipPath>
    <linearGradient id="linear-gradient" x1="282.96" y1="409.78" x2="282.96" y2="89.39" gradientUnits="userSpaceOnUse">
      <stop offset="0" stop-color="#b6842c"/>
      <stop offset=".5" stop-color="#dbb54c"/>
      <stop offset="1" stop-color="#b6842c"/>
    </linearGradient>
  </defs>
  <g id="Layer_1-2" data-name="Layer 1">
    <g>
      <rect class="cls-1" x="0" y="0" width="565.92" height="565.92" rx="282.96" ry="282.96"/>
      <g>
        <path class="cls-4" d="M225.59,140.94l-.25,157.68-.05,45.11-122.12,14.47,108.74,.23,20.87-.19V135s-7.2,5.94-7.2,5.94Zm31.18-29.8l-.17,92.81v154.5s7.54-.03,7.54-.03l.06-254.06-7.43,6.79Zm-101.57,177.97l-.02,55.68,27.13-3.43,.61-1.08,.08-77.67-27.8,26.5Zm117.14-192.92l-.32,262.27h7.3s.11-268.85,.11-268.85l-7.09,6.58Zm-31.54,30.52l-.12,231.57,7.49,.16,.14-238.69-7.5,6.95Zm-50.56,85.31l-.07,128.79,27.77-3.13,.19-57.75-.03-94.2-27.85,26.29Z"/>
        <path class="cls-4" d="M153.92,445.56l-4.8,15.48h9.66l-4.86-15.48Zm-17.13,29.91l12.85-38.54h8.8l12.87,38.54h-8.07l-2.44-7.83h-13.78l-2.41,7.83h-7.81Zm48.99-14.49l-12.67-24.05h9.04l7.54,16.72,7.07-16.72h8.6l-12.01,23.9v14.65h-7.56v-14.49Zm38.46-15.42l-4.8,15.48h9.66l-4.86-15.48Zm-17.13,29.91l12.85-38.54h8.8l12.87,38.54h-8.07l-2.44-7.83h-13.78l-2.41,7.83h-7.82Zm46.14,0h-7.1v-38.54h7.95l14.56,27.03v-27.03h7.1v38.54h-7.54l-14.97-27.75v27.75Zm42.23,0v-38.54h26.71v6.85h-19.15v8.2h17.75v6.6h-17.75v10.05h20v6.85h-27.57Zm49.32,1.05c-5.3,0-9.51-1.81-12.61-5.43-3.1-3.61-4.65-8.5-4.65-14.67s1.61-11.31,4.84-15.01c3.22-3.69,7.59-5.54,13.1-5.54,4.41,0,8.05,1.16,10.91,3.49,2.86,2.33,4.53,5.5,5,9.49h-7.62c-.18-1.69-1.07-3.15-2.66-4.42-1.58-1.26-3.33-1.9-5.24-1.9-3.3,0-5.88,1.21-7.74,3.63-1.87,2.43-2.8,5.79-2.8,10.09s.89,7.71,2.69,9.99c1.78,2.28,4.41,3.42,7.85,3.42h-.03c2.94,0,5.23-1.19,6.87-3.58,.91-1.35,1.57-2.92,1.99-4.72v-.09h-8.55v-6.6h15.23v20.74h-5.06l-.74-4.97-.46,.64c-2.56,3.62-6.01,5.43-10.37,5.43h.03Zm33.35-15.54l-12.67-24.05h9.04l7.54,16.72,7.07-16.72h8.6l-12.01,23.9v14.65h-7.56v-14.49Zm31.71-5.92h6.36c2.12,0,3.72-.49,4.78-1.49,1.07-1,1.6-2.51,1.6-4.52,0-1.83-.53-3.21-1.6-4.13-1.06-.93-2.66-1.39-4.78-1.39h-6.36v11.53Zm-7.56,20.41v-38.54h15.19c4.13,0,7.27,1.03,9.43,3.08,2.16,2.06,3.24,5.04,3.24,8.95,0,4.15-1.08,7.31-3.24,9.46-2.16,2.16-5.31,3.24-9.44,3.24-2.94-.02-5.48,0-7.62,.06v13.75h-7.56Zm41.6,0v-31.7h-11v-6.85h29.53v6.85h-10.97v31.7h-7.56Zm-340.25,0v-38.54h7.56v15.97l13.92-15.97h9.69l-14.52,15.76,15.48,22.79h-9.94l-10.94-16.95-3.69,4v12.95h-7.56Z"/>
        <g class="cls-2">
          <rect class="cls-5" x="103.07" y="89.4" width="359.77" height="332.86"/>
        </g>
      </g>
    </g>
  </g>
</svg>