<?xml version="1.0" encoding="utf-8"?>
<!-- Generator: Adobe Illustrator 26.5.0, SVG Export Plug-In . SVG Version: 6.00 Build 0)  -->
<svg version="1.1" id="Layer_1" xmlns:svgjs="http://svgjs.com/svgjs"
	 xmlns="http://www.w3.org/2000/svg" xmlns:xlink="http://www.w3.org/1999/xlink" x="0px" y="0px" viewBox="0 0 512 512"
	 style="enable-background:new 0 0 512 512;" xml:space="preserve">
<style type="text/css">
	.st0{fill:#39A9E0;}
</style>
<g>
	<path class="st0" d="M382.5,380.1c1.4,0.5,2.8,0.8,4.2,0.9c0.5,0,0.9,0.1,1.4,0.1c4.1,0,8-1.4,11.1-4.1l38.6-33
		c7.2-6.1,8-16.9,1.9-24.1c0,0,0,0,0,0l-30.1-35V17.1C409.6,7.6,402,0,392.5,0H174.2c-4.5,0-8.9,1.8-12.1,5l-54.7,54.7
		c-3.2,3.2-5,7.5-5,12.1v201.9l-28.2,24.1c-7.1,6.1-8,16.9-1.9,24.1l33.1,38.6c3.2,3.8,8,6,13,6c1.1,0,2.3-0.1,3.4-0.4l7.7,9.3
		c-7.1,12-3.2,27.4,8.8,34.5c3,1.8,6.4,2.9,9.8,3.3c-0.4,13,9.2,24.2,22.1,25.8c-0.4,13,9.2,24.2,22.1,25.8
		c-0.4,14,10.6,25.7,24.6,26.1c3.4,0.1,6.7-0.5,9.9-1.7l11.9,14c4.4,5.1,10.7,8.3,17.4,8.8c0.7,0.1,1.3,0.1,2,0.1
		c6.1,0,11.9-2.2,16.5-6.1c4.8-4,7.9-9.7,8.7-15.9c13,0.3,24.1-9.3,25.8-22.1c6.3,0.2,12.4-2,17.1-6.1c4.8-4.1,7.8-9.8,8.7-16
		c6.2,0,12.3-2.1,17.1-6.1c10.6-9.2,11.9-25.2,2.8-35.9L382.5,380.1z M283.2,319.9c3.5-3.1,3.8-8.5,0.6-12.1
		c-3.1-3.4-8.3-3.8-11.8-0.9l-6.4,5.5l-45.1,38.6c-3.4,3.2-8.8,3-11.9-0.4s-3-8.8,0.4-11.9c0.2-0.2,0.3-0.3,0.5-0.4l53.7-46
		c1.4-1.2,3.1-1.9,4.9-2l32.4-2.1l69,80.4l-25.7,22L283.2,319.9z M426.7,331l-38.6,33l-86.3-100.5l38.6-33.1L426.7,331L426.7,331z
		 M162.1,29.1v30.6h-30.6L162.1,29.1z M119.5,76.8h42.7c9.4,0,17.1-7.6,17.1-17.1V17.1h213.3V265l-39.2-45.7
		c-6.1-7.1-16.9-8-24.1-1.9l-38.6,33.1c-6.2,5.3-7.8,14.4-3.7,21.5l-20,1.3c-5.5,0.4-10.7,2.5-14.9,6.1l-5.2,4.5l-20.7-5.4
		c4.4-6.3,3.9-14.8-1.1-20.6l-33-38.6c-6.1-7.1-16.9-8-24.1-1.9l-48.5,41.6V76.8z M85.3,310.8l93.8-80.4l33,38.6l-93.7,80.4
		L85.3,310.8z M146,381.6c3.5-3,8.9-2.6,11.9,1c3,3.5,2.6,8.9-1,11.9c-3.5,3-8.8,2.6-11.9-0.9c-3-3.5-2.7-8.8,0.8-11.8
		C146,381.7,146,381.7,146,381.6L146,381.6z M165.2,413.2c0.4-4.6,4.4-8.1,9.1-7.8c4.6,0.4,8.1,4.4,7.8,9.1
		c-0.2,2.2-1.2,4.3-2.9,5.8c-1.7,1.4-3.9,2.1-6.1,2C168.3,421.9,164.9,417.9,165.2,413.2C165.2,413.2,165.2,413.2,165.2,413.2z
		 M190.2,433.2c3.5-3,8.9-2.6,11.9,0.9c0,0,0,0,0,0c3,3.5,2.6,8.9-0.9,11.9c-1.7,1.4-3.9,2.2-6.1,2c-4.6-0.4-8.1-4.4-7.8-9.1
		C187.5,436.7,188.6,434.6,190.2,433.2L190.2,433.2z M211.4,470.9c-3-3.5-2.6-8.9,0.9-11.9c3.5-3,8.9-2.6,11.9,0.9
		c3,3.5,2.6,8.9-0.9,11.9C219.7,474.8,214.4,474.4,211.4,470.9L211.4,470.9z M341.1,426.7c-3.5,3-8.9,2.6-11.9-0.9l-16.6-19.3
		c-3.1-3.6-8.5-4-12-0.9c-3.6,3.1-4,8.5-0.9,12l16.6,19.3c2.9,3.7,2.3,9-1.4,11.9c-3.5,2.7-8.4,2.4-11.4-0.9l-11-12.9
		c-3.1-3.6-8.5-4-12-0.9c-3.6,3.1-4,8.5-0.9,12l11,12.9c3,3.5,2.6,8.9-0.9,11.9c-1.7,1.4-3.9,2.1-6.1,2c-2.2-0.2-4.3-1.2-5.8-2.9
		l-5.5-6.4c-3.1-3.6-8.5-4-12-0.9c-3.6,3.1-4,8.5-0.9,12l0,0l5.5,6.4c1.5,1.7,2.2,4,1.9,6.3c-0.1,2.2-1.2,4.2-2.9,5.6
		c-1.7,1.5-3.9,2.2-6.1,2c-2.2-0.2-4.3-1.2-5.8-2.9l-12-14c7-12.1,2.9-27.5-9.1-34.6c-3-1.7-6.2-2.8-9.6-3.2
		c0.4-13-9.2-24.2-22.1-25.8c0.2-6.3-2-12.4-6-17.2c-4.1-4.7-9.8-7.8-16.1-8.6c0.4-14-10.5-25.6-24.5-26.1c-3.4-0.1-6.7,0.5-9.9,1.7
		l-6.4-7.7l75.1-64.4l19.9,5.2l-32.7,28c-10.6,9.3-11.7,25.4-2.4,36c9.1,10.4,24.9,11.7,35.6,2.7l38.7-33l71.7,83.6
		c1.5,1.7,2.2,4,2,6.3C343.8,423.2,342.8,425.2,341.1,426.7L341.1,426.7z"/>
	<path class="st0" d="M156.1,134c1.6,1.6,3.8,2.5,6,2.5h0.6c2.5-0.2,4.7-1.4,6.2-3.4L194.6,99c2.8-3.8,2.1-9.1-1.7-11.9
		c-3.8-2.8-9.1-2.1-11.9,1.7L161.2,115l-1.6-1.6c-3.4-3.3-8.8-3.2-12.1,0.2c-3.2,3.3-3.2,8.5,0,11.9L156.1,134z M273.1,102.4h85.3
		c4.7,0,8.5-3.8,8.5-8.5c0-4.7-3.8-8.5-8.5-8.5h-85.3c-4.7,0-8.5,3.8-8.5,8.5C264.5,98.6,268.4,102.4,273.1,102.4z M230.4,102.4h8.5
		c4.7,0,8.5-3.8,8.5-8.5c0-4.7-3.8-8.5-8.5-8.5h-8.5c-4.7,0-8.5,3.8-8.5,8.5C221.9,98.6,225.7,102.4,230.4,102.4z M230.4,136.5h59.7
		c4.7,0,8.5-3.8,8.5-8.5c0-4.7-3.8-8.5-8.5-8.5h-59.7c-4.7,0-8.5,3.8-8.5,8.5C221.9,132.7,225.7,136.5,230.4,136.5z M194.6,167.3
		c2.8-3.8,2.1-9.1-1.7-11.9c-3.8-2.8-9.1-2.1-11.9,1.7l-19.7,26.3l-1.6-1.6c-3.4-3.3-8.8-3.2-12.1,0.2c-3.2,3.3-3.2,8.5,0,11.9
		l8.5,8.5c1.6,1.6,3.8,2.5,6,2.5h0.6c2.5-0.2,4.7-1.4,6.2-3.4L194.6,167.3z M358.4,153.6h-85.3c-4.7,0-8.5,3.8-8.5,8.5
		c0,4.7,3.8,8.5,8.5,8.5h85.3c4.7,0,8.5-3.8,8.5-8.5C366.9,157.4,363.1,153.6,358.4,153.6z M230.4,170.7h8.5c4.7,0,8.5-3.8,8.5-8.5
		c0-4.7-3.8-8.5-8.5-8.5h-8.5c-4.7,0-8.5,3.8-8.5,8.5C221.9,166.8,225.7,170.7,230.4,170.7z M230.4,204.8h59.7
		c4.7,0,8.5-3.8,8.5-8.5s-3.8-8.5-8.5-8.5h-59.7c-4.7,0-8.5,3.8-8.5,8.5S225.7,204.8,230.4,204.8z"/>
</g>
</svg>
