<?xml version="1.0" encoding="utf-8"?>
<!-- Generator: Adobe Illustrator 26.5.0, SVG Export Plug-In . SVG Version: 6.00 Build 0)  -->
<svg version="1.1" id="Layer_1" xmlns:svgjs="http://svgjs.com/svgjs"
	 xmlns="http://www.w3.org/2000/svg" xmlns:xlink="http://www.w3.org/1999/xlink" x="0px" y="0px" viewBox="0 0 512 512"
	 style="enable-background:new 0 0 512 512;" xml:space="preserve">
<style type="text/css">
	.st0{fill:#39A9E0;}
</style>
<g>
	<path class="st0" d="M504.7,134.4L504.7,134.4L504.7,134.4l-33.1-4.7c-4.6-0.7-7.9-5-7.2-9.6c0.3-2.2,1.5-4.2,3.3-5.6l26.7-20
		c3.8-2.8,4.5-8.1,1.7-11.9l-30.6-40.8c-2.8-3.8-8.1-4.5-11.9-1.7c0,0,0,0,0,0l-26.7,20c-3.7,2.8-9.1,2.1-11.9-1.6
		c-1.4-1.8-2-4.1-1.6-6.4l4.7-33c0.7-4.6-2.6-8.9-7.2-9.6c0,0,0,0,0,0l0,0l-50.4-7.2c-4.6-0.7-9,2.6-9.6,7.2c0,0,0,0,0,0v0l-4.7,33
		c-0.7,4.6-5,7.9-9.6,7.2c-2.2-0.3-4.2-1.5-5.6-3.3l-20-26.7c-2.8-3.8-8.1-4.5-11.9-1.7c0,0,0,0,0,0l-25.5,19.2
		c-11.5-1.2-23.2-1.2-34.7,0c-75.6,8.6-135,69-142.3,144.7c-0.2,2.4-0.3,4.8-0.4,7.2h-2.5c-4,0-7.5,2.8-8.3,6.8l-5.9,27.9
		l-23.5-16.2c-3.4-2.3-7.9-1.9-10.8,1l-25.5,25.5c-2.9,2.9-3.3,7.4-1,10.8l16.1,23.5l-27.9,5.9c-3.9,0.9-6.7,4.3-6.7,8.3v34
		c0,4,2.8,7.5,6.7,8.3l27.9,5.9l-16.1,23.5c-2.3,3.4-1.9,7.9,1,10.8L45,390.5c2.9,2.9,7.5,3.3,10.8,1l23.5-16.2l5.9,27.9
		c0.8,3.9,4.3,6.8,8.3,6.8h34c4,0,7.5-2.8,8.3-6.7l5.9-27.9l23.5,16.1c3.4,2.3,7.9,1.9,10.8-1l13.2-13.2v24.2
		c0,12.1,6.5,23.2,17,29.3v47.2c0,18.8,15.2,34,34,34h34c18.8,0,34-15.2,34-34v-47.2c10.5-6,17-17.2,17-29.3v-33.6
		c0.2-14.1,7.6-27.2,19.7-34.7c7.1-4.6,13.7-9.7,20-15.3l-11.3-12.7c-5.6,5-11.6,9.6-17.9,13.7c-16.9,10.6-27.2,29-27.4,48.9v33.6
		c0,9.4-7.6,17-17,17h-68c-9.4,0-17-7.6-17-17v-34.3c-0.2-19.5-10.4-37.6-26.9-47.9c-67.3-42.3-87.6-131.2-45.3-198.5
		c26.3-41.8,72.1-67.2,121.4-67.4c-0.1,0.3-0.2,0.6-0.3,0.9c-0.3,2.2,0.3,4.5,1.6,6.3l20,26.7c2.1,2.7,2.3,6.5,0.5,9.4
		c-1.7,3-5.1,4.6-8.5,4.1l-33-4.7c-4.6-0.7-8.9,2.6-9.6,7.2c0,0,0,0,0,0l0,0l-7.2,50.5c-0.7,4.6,2.6,8.9,7.2,9.6l0,0l33,4.7
		c4.6,0.7,7.9,5,7.2,9.6c-0.3,2.2-1.5,4.2-3.3,5.6l-26.7,20c-3.8,2.8-4.5,8.1-1.7,11.9l30.6,40.8c2.8,3.8,8.1,4.5,11.9,1.7l26.7-20
		c3.8-2.8,9.1-2,11.9,1.7c1.3,1.8,1.9,4.1,1.6,6.3l-4.7,33c-0.7,4.6,2.6,9,7.2,9.6c0,0,0,0,0,0h0l50.5,7.2c0.4,0.1,0.8,0.1,1.2,0.1
		c4.2,0,7.8-3.1,8.4-7.3l4.7-33c0.7-4.6,5-7.9,9.6-7.2c2.2,0.3,4.2,1.5,5.6,3.3l20,26.7c2.8,3.8,8.1,4.5,11.9,1.7l0,0l40.8-30.6
		c3.8-2.8,4.5-8.1,1.7-11.9l-20-26.7c-2.1-2.7-2.3-6.5-0.5-9.4c1.7-3,5.1-4.6,8.5-4.1l33,4.7c4.6,0.7,9-2.6,9.6-7.2c0,0,0,0,0,0v0
		l7.2-50.5C512.6,139.4,509.4,135.1,504.7,134.4C504.7,134.4,504.7,134.4,504.7,134.4L504.7,134.4z M223.1,435.5h68v17h-68V435.5z
		 M223.1,469.4h68v8.5c0,9.4-7.6,17-17,17h-34c-9.4,0-17-7.6-17-17V469.4z M155.5,322.9c4.6,3.8,9.5,7.3,14.5,10.6
		c8,5.1,14.1,12.7,17.1,21.7l-18.2,18.2l-17.6-12.2c-7.7-5.3-18.3-3.4-23.6,4.3c-1.3,1.9-2.2,3.9-2.6,6.1l-4.5,21.2h-20.2l-4.5-21.2
		c-1.9-9.2-10.9-15.1-20.1-13.1c-2.2,0.5-4.3,1.4-6.1,2.6L52,373.4L36.5,358l12.2-17.6c5.3-7.7,3.4-18.3-4.3-23.6
		c-1.9-1.3-3.9-2.2-6.1-2.6L17,309.6v-20.2l21.2-4.5c9.2-1.9,15-11,13.1-20.1c-0.5-2.2-1.3-4.2-2.6-6.1l-12.2-17.7L52,225.6
		l17.7,12.2c7.7,5.3,18.3,3.4,23.6-4.4c1.3-1.9,2.2-3.9,2.6-6.1l1.5-7.1c1.4,9.8,3.6,19.4,6.7,28.8c-28,3.3-47.9,28.7-44.6,56.6
		s28.7,47.9,56.6,44.6C133,348.3,147.7,338,155.5,322.9L155.5,322.9z M142.3,311c-6.3,17.6-25.8,26.8-43.4,20.4
		c-17.6-6.3-26.8-25.8-20.4-43.4c4.9-13.5,17.7-22.5,32-22.4h0.3C118.6,282.4,129.2,297.8,142.3,311z M489,183.7l-24.6-3.5
		c-13.9-2-26.8,7.7-28.8,21.6c-1,6.7,0.8,13.5,4.8,18.9l14.9,19.9L428.2,261l-14.9-19.9c-8.4-11.3-24.4-13.5-35.7-5.1
		c-5.4,4.1-9,10.1-9.9,16.8l-3.4,24.7l-33.6-4.8L334,248c2-13.9-7.7-26.8-21.6-28.8c-6.7-1-13.5,0.8-18.9,4.8l-19.9,14.9l-20.4-27.2
		l19.9-14.9c11.3-8.4,13.5-24.4,5.1-35.7c-4.1-5.4-10.1-9-16.8-9.9l-24.6-3.5l4.8-33.6l24.6,3.5c13.9,2,26.8-7.7,28.8-21.6
		c1-6.7-0.8-13.5-4.8-18.9l-15-19.9l27.2-20.4l14.9,19.9c8.4,11.3,24.4,13.5,35.7,5.1c5.4-4.1,9-10.1,9.9-16.8l3.5-24.6l33.6,4.8
		l-3.5,24.6c-2,13.9,7.7,26.8,21.6,28.8c6.7,1,13.5-0.8,18.9-4.8l19.9-14.9L477.5,86l-19.9,14.9c-11.3,8.4-13.5,24.4-5.1,35.7
		c4.1,5.4,10.1,9,16.8,9.9l24.6,3.5L489,183.7L489,183.7z"/>
	<path class="st0" d="M365.3,80.9c-37.5,0-68,30.4-68,68s30.4,68,68,68s68-30.4,68-68C433.2,111.3,402.8,80.9,365.3,80.9z
		 M365.3,199.8c-28.2,0-51-22.8-51-51s22.8-51,51-51c28.2,0,51,22.8,51,51C416.3,177,393.5,199.8,365.3,199.8z M248.6,376h17v25.5
		h-17V376z M220,292.6c-52.4-20.5-78.4-79.6-57.9-132.1c7.9-20.3,22.2-37.6,40.7-49.2l-9.1-14.4c-55.6,35-72.3,108.5-37.2,164
		c13.6,21.5,33.7,38.1,57.4,47.4c21,8,34.8,28.2,34.8,50.6h17C265.6,329.5,247.5,303.1,220,292.6L220,292.6z M418.5,316.5H478v17
		h-59.5V316.5z M404.6,374l10.9-13.1l51,42.5l-10.9,13.1L404.6,374z M367.6,384.5h17V444h-17V384.5z M8.7,146.9l68-17l4.1,16.5
		l-68,17L8.7,146.9z M22.8,60.1l9.9-13.8l59.5,42.5l-9.9,13.8L22.8,60.1z M95.6,4.3L112,0.1l17.4,68L113,72.2L95.6,4.3z"/>
</g>
</svg>
